<svg width="42" height="48" viewBox="0 0 42 48" fill="none" xmlns="http://www.w3.org/2000/svg">
<path d="M33 15V12C33 5.38312 27.6168 0 21 0C14.3831 0 9 5.38312 9 12V15H0V40.5C0 44.6422 3.35784 48 7.5 48H34.5C38.6422 48 42 44.6422 42 40.5V15H33ZM15 12C15 8.69156 17.6916 6 21 6C24.3084 6 27 8.69156 27 12V15H15V12ZM30 23.25C28.7573 23.25 27.75 22.2427 27.75 21C27.75 19.7573 28.7573 18.75 30 18.75C31.2427 18.75 32.25 19.7573 32.25 21C32.25 22.2427 31.2427 23.25 30 23.25ZM12 23.25C10.7573 23.25 9.75 22.2427 9.75 21C9.75 19.7573 10.7573 18.75 12 18.75C13.2427 18.75 14.25 19.7573 14.25 21C14.25 22.2427 13.2427 23.25 12 23.25Z" fill="#F5F5F5"/>
</svg>
